<?xml version="1.0" standalone="no"?>
<!DOCTYPE svg PUBLIC "-//W3C//DTD SVG 20010904//EN"
 "http://www.w3.org/TR/2001/REC-SVG-20010904/DTD/svg10.dtd">
<svg version="1.0" xmlns="http://www.w3.org/2000/svg"
 width="2388.000000pt" height="1515.000000pt" viewBox="0 0 2388.000000 1515.000000"
 preserveAspectRatio="xMidYMid meet">
<metadata>
Created by potrace 1.16, written by Peter Selinger 2001-2019
</metadata>
<g transform="translate(0.000000,1515.000000) scale(0.100000,-0.100000)"
fill="#000000" stroke="none">
<path d="M18842 12383 c-121 -122 -210 -253 -371 -549 -130 -238 -187 -376
-319 -770 -164 -490 -342 -1177 -328 -1266 7 -40 -1 -71 -15 -62 -5 3 -9 -5
-9 -17 l0 -22 -22 20 c-42 38 -71 47 -148 47 -85 -1 -172 -29 -266 -85 -82
-50 -309 -286 -416 -433 -32 -45 -33 -39 -13 67 31 164 9 234 -87 275 -25 10
-29 9 -41 -16 -8 -15 -22 -60 -32 -100 l-17 -72 -72 -42 c-155 -90 -516 -330
-516 -343 0 -16 149 74 150 90 0 6 33 28 73 49 39 21 133 79 208 127 75 49
139 89 142 89 4 0 7 -6 7 -14 0 -8 -28 -31 -62 -52 -35 -20 -88 -55 -118 -76
-54 -38 -145 -95 -205 -128 -16 -9 -63 -38 -103 -65 -56 -38 -83 -49 -115 -50
-62 -3 -67 -4 -67 -18 0 -16 -184 -105 -280 -136 -135 -44 -228 -37 -232 18
-2 41 3 85 11 96 5 6 14 39 20 74 18 91 75 250 132 367 39 80 55 103 74 108
31 8 31 19 0 71 -24 42 -74 75 -113 75 -28 0 -95 -77 -133 -152 -40 -79 -134
-365 -150 -454 -6 -37 -9 -90 -6 -118 l5 -52 -88 1 c-49 0 -92 4 -97 8 -4 5
-8 142 -8 305 -1 298 -6 354 -42 465 -13 43 -21 51 -60 68 -74 32 -80 29 -194
-88 -96 -99 -206 -231 -203 -243 4 -11 -269 -330 -342 -401 -86 -82 -142 -125
-151 -115 -12 12 81 275 142 401 59 121 133 234 184 280 l22 19 -6 -50 c-8
-59 3 -73 66 -81 107 -15 181 109 137 228 -13 37 -74 67 -162 81 l-77 12 -65
-65 c-145 -142 -280 -356 -337 -534 -34 -105 -47 -181 -47 -275 l0 -77 53 -51
c55 -51 122 -81 141 -62 6 6 22 10 37 10 20 0 48 19 101 67 142 131 242 248
503 591 l130 171 6 -97 c4 -53 7 -206 8 -340 l1 -243 -34 -14 c-19 -8 -37 -19
-41 -25 -3 -5 -15 -10 -26 -10 -10 0 -27 -8 -37 -17 -21 -21 -112 -66 -119
-59 -3 3 -12 -2 -20 -10 -9 -8 -22 -13 -29 -10 -7 3 -17 -1 -21 -8 -12 -20
-50 -37 -67 -30 -9 3 -16 1 -16 -6 0 -6 -4 -8 -10 -5 -5 3 -10 -1 -10 -9 0 -9
-5 -16 -11 -16 -6 0 -25 -11 -43 -25 -18 -14 -42 -25 -52 -25 -11 0 -25 -9
-32 -20 -16 -26 -90 -72 -102 -65 -6 4 -10 0 -10 -8 0 -7 -11 -19 -25 -25 -14
-6 -25 -16 -25 -22 0 -5 -6 -10 -13 -10 -7 0 -59 -47 -117 -105 -58 -58 -112
-105 -122 -105 -9 0 -20 -9 -23 -20 -4 -12 -31 -46 -61 -77 -64 -65 -79 -89
-61 -97 6 -3 3 -4 -8 -3 -38 4 -288 -343 -269 -374 4 -7 3 -9 -3 -6 -25 15
-234 -456 -248 -558 -3 -16 -7 -48 -10 -70 -27 -188 -35 -251 -36 -283 0 -32
-1 -34 -9 -15 -11 27 4 212 26 328 50 255 192 560 397 850 l77 110 -58 -64
c-57 -62 -77 -91 -184 -271 -163 -275 -251 -515 -278 -760 -12 -106 -5 -304
10 -280 6 10 9 9 16 -1 4 -7 3 -14 -4 -17 -38 -12 8 -179 104 -382 108 -227
236 -349 411 -395 94 -25 135 -20 226 26 154 77 286 192 352 305 15 27 34 52
41 56 7 5 31 43 55 85 23 43 50 89 60 102 11 13 19 32 19 41 0 10 7 21 16 24
10 4 14 14 11 25 -2 11 9 35 30 62 43 56 73 113 73 137 0 11 9 31 20 45 11 14
20 34 20 45 0 11 7 25 15 32 8 7 15 25 15 41 0 15 5 31 10 34 17 10 58 99 71
151 6 27 18 57 27 66 8 10 12 25 8 34 -4 11 5 40 23 73 34 65 59 148 96 321
15 69 32 135 37 146 6 12 11 41 13 65 1 24 9 70 18 102 23 84 40 212 34 262
-3 28 3 70 14 112 12 41 25 147 34 265 9 108 18 204 21 212 7 18 106 36 196
36 50 0 71 -5 91 -20 36 -28 108 -57 162 -66 56 -8 103 -45 139 -111 31 -55
56 -135 56 -180 0 -18 4 -33 10 -33 14 0 9 110 -6 141 -7 14 -11 35 -8 45 3
11 -9 43 -29 75 l-34 56 83 21 c119 29 209 75 269 137 27 29 61 58 75 65 55
28 160 115 155 128 -3 10 0 12 10 8 8 -3 14 0 12 7 -1 7 8 11 23 9 20 -2 22
-1 10 7 -16 11 -8 15 24 11 10 -1 16 4 14 10 -2 6 14 30 35 52 36 38 39 39 53
22 11 -14 17 -16 21 -6 2 7 10 18 16 25 7 6 12 19 12 27 0 9 7 14 17 12 12 -2
16 2 12 12 -4 11 3 19 20 26 14 5 26 14 26 20 0 13 -17 13 -25 0 -3 -5 -12
-10 -18 -10 -14 1 58 70 73 70 13 0 13 -17 0 -25 -6 -4 -8 -10 -5 -14 2 -5 -7
-71 -21 -147 -18 -92 -27 -178 -28 -254 -1 -102 2 -120 22 -163 23 -45 85
-107 108 -107 21 0 78 45 101 79 13 19 28 52 33 75 13 48 42 106 118 231 80
132 248 370 293 415 21 21 39 44 39 52 0 7 23 25 50 40 27 15 93 60 147 100
146 108 213 132 213 76 -1 -52 -31 -164 -55 -200 -22 -34 -24 -42 -15 -80 14
-62 12 -145 -5 -234 -13 -69 -13 -89 0 -171 26 -161 67 -252 155 -341 141
-144 317 -154 511 -30 70 45 154 118 154 134 0 7 6 19 13 26 21 21 13 29 -13
12 -14 -9 -25 -12 -25 -7 0 12 58 66 150 140 75 60 123 107 90 88 -8 -5 -36
-27 -63 -48 -26 -22 -49 -38 -52 -35 -3 3 10 17 30 32 22 17 35 35 35 49 -1
20 -2 20 -11 5 -5 -10 -16 -18 -23 -18 -8 0 -27 -15 -44 -34 -16 -19 -40 -37
-53 -41 -21 -6 -18 -1 15 33 22 23 42 39 46 37 4 -2 12 6 18 19 11 25 92 96
110 96 6 0 14 5 18 12 4 7 3 8 -4 4 -7 -4 -12 -3 -12 3 0 6 9 15 20 21 12 6
42 31 67 56 26 24 52 44 60 44 7 0 27 17 45 37 54 61 92 93 116 99 12 4 22 10
22 16 0 5 4 7 9 4 5 -3 14 1 21 9 11 13 10 14 -5 9 -25 -10 -15 5 53 84 42 47
50 62 36 62 -26 0 -124 -99 -117 -119 4 -12 3 -13 -5 -3 -7 11 -34 -9 -118
-85 -350 -317 -629 -546 -750 -617 -41 -24 -106 -54 -145 -66 -64 -21 -71 -21
-88 -6 -9 9 -20 14 -23 11 -2 -3 -4 5 -4 18 1 12 -4 21 -11 20 -6 -1 -20 19
-30 45 -26 67 -26 363 0 472 25 107 32 120 92 167 77 61 169 189 264 370 46
87 99 184 118 216 19 31 33 63 30 70 -2 6 4 21 14 32 9 11 35 61 57 110 22 50
95 216 164 370 142 317 241 558 322 785 30 85 71 193 90 240 19 47 40 119 46
160 7 41 23 122 37 180 46 190 42 347 -12 442 -25 44 -86 92 -130 102 -16 4
-38 9 -48 12 -13 4 -45 -22 -115 -93z m178 -95 c0 -35 -6 -94 -15 -133 -8 -38
-24 -116 -35 -172 -12 -57 -61 -225 -110 -375 -76 -234 -115 -331 -269 -678
-198 -444 -443 -943 -546 -1115 l-66 -110 6 55 c5 45 26 140 61 275 4 16 3 17
-5 5 -17 -25 -14 9 4 44 9 16 15 48 15 70 -1 24 9 67 23 101 14 33 28 89 32
124 4 36 14 71 22 79 8 9 12 24 9 38 -3 12 -1 24 4 26 6 2 22 46 36 98 14 52
34 118 44 145 33 88 43 137 30 145 -9 5 -4 19 15 48 27 42 66 137 135 337 21
61 63 163 94 227 31 65 53 124 50 131 -3 8 2 17 10 20 9 4 16 18 16 34 0 28
39 133 53 144 4 3 5 13 1 22 -3 10 5 30 21 51 14 19 27 47 29 61 2 15 10 32
19 37 25 13 104 133 83 125 -12 -5 -15 -3 -10 6 14 25 37 46 44 42 11 -7 71
70 62 79 -4 4 -2 6 4 4 6 -1 26 14 46 35 23 24 44 37 62 37 25 0 26 -2 26 -62z
m74 -182 c-7 -59 -18 -73 -26 -31 -3 14 -1 25 3 25 5 0 9 13 9 28 0 27 9 47
17 38 2 -2 1 -29 -3 -60z m-343 -3 c-8 -15 -10 -15 -11 -2 0 17 10 32 18 25 2
-3 -1 -13 -7 -23z m-212 -245 c-55 -106 -128 -250 -161 -321 -34 -70 -63 -125
-65 -123 -18 17 296 636 322 636 2 0 -41 -87 -96 -192z m534 151 c-4 -13 -9
-17 -16 -10 -12 12 -1 45 12 37 5 -3 7 -15 4 -27z m-29 -116 c-5 -20 -15 -39
-23 -41 -10 -3 -11 0 -5 9 4 8 7 26 5 41 -3 35 7 54 22 39 7 -7 8 -23 1 -48z
m29 12 c-3 -9 -8 -14 -10 -11 -3 3 -2 9 2 15 9 16 15 13 8 -4z m-480 -72 c-7
-2 -19 -2 -25 0 -7 3 -2 5 12 5 14 0 19 -2 13 -5z m427 -14 c0 -5 -4 -9 -10
-9 -5 0 -10 7 -10 16 0 8 5 12 10 9 6 -3 10 -10 10 -16z m-10 -49 c0 -17 -17
-37 -25 -29 -2 2 -1 16 2 31 6 30 23 28 23 -2z m-30 -50 c0 -5 -5 -10 -11 -10
-5 0 -7 5 -4 10 3 6 8 10 11 10 2 0 4 -4 4 -10z m0 -30 c0 -5 -4 -10 -10 -10
-5 0 -10 5 -10 10 0 6 5 10 10 10 6 0 10 -4 10 -10z m-460 -4 c0 -3 -4 -8 -10
-11 -5 -3 -10 -1 -10 4 0 6 5 11 10 11 6 0 10 -2 10 -4z m490 -11 c0 -8 -4
-15 -10 -15 -5 0 -10 7 -10 15 0 8 5 15 10 15 6 0 10 -7 10 -15z m-42 -13 c9
-7 8 -13 -7 -26 -11 -10 -17 -24 -14 -32 5 -14 -8 -20 -19 -8 -7 6 13 74 21
74 3 0 12 -4 19 -8z m-32 -94 c4 -6 2 -14 -4 -16 -7 -2 -12 -16 -11 -30 0 -23
2 -24 8 -8 4 11 10 15 13 10 8 -13 -9 -54 -22 -54 -14 0 -30 -43 -19 -50 11
-7 -7 -84 -20 -88 -6 -2 -11 -13 -11 -25 0 -17 -33 -95 -57 -136 -1 -2 -9 2
-18 9 -13 10 -15 9 -15 -8 0 -11 5 -22 11 -24 8 -3 7 -12 -3 -32 -13 -25 -16
-27 -30 -12 -12 11 -17 12 -21 3 -2 -7 2 -18 9 -25 8 -7 14 -10 14 -6 0 4 2 5
5 2 7 -7 -25 -98 -35 -98 -5 0 -7 -13 -5 -30 2 -16 0 -30 -5 -30 -11 0 -41
-60 -35 -71 3 -4 1 -10 -5 -14 -5 -3 -10 -12 -10 -20 0 -8 -11 -30 -24 -49
-13 -19 -43 -81 -67 -138 -51 -122 -78 -170 -90 -162 -5 3 -9 -9 -9 -26 0 -21
-4 -29 -12 -24 -8 5 -9 2 -5 -10 5 -13 3 -17 -7 -13 -14 5 -32 -35 -23 -51 2
-4 -4 -15 -15 -24 -10 -10 -18 -13 -18 -8 0 6 -4 10 -8 10 -8 0 -64 -113 -76
-152 -6 -21 -46 -44 -46 -27 0 6 15 36 34 67 19 32 49 91 67 132 50 114 83
166 103 162 15 -3 17 2 11 27 -9 40 7 87 50 147 19 27 35 59 35 71 0 13 4 23
9 23 5 0 11 14 15 30 3 17 12 30 21 30 11 0 13 7 9 30 -4 17 -2 30 4 30 13 0
36 56 27 69 -3 6 -1 11 4 11 6 0 11 9 11 20 0 11 6 23 14 26 8 3 18 20 22 37
3 17 10 38 15 47 4 8 11 32 14 53 3 20 10 37 16 37 5 0 12 6 14 13 2 6 10 26
17 42 6 17 12 35 13 42 0 7 7 18 16 25 8 7 26 45 39 85 13 39 29 71 34 70 6
-1 10 11 8 27 -3 31 15 86 29 86 4 0 11 -5 15 -12z m-680 -322 c-23 -60 -62
-140 -53 -106 14 51 63 170 69 170 4 0 -3 -29 -16 -64z m-58 -163 c-2 -9 -8
-18 -15 -20 -7 -3 -9 3 -6 16 6 25 26 28 21 4z m-43 -113 c-4 -12 -9 -19 -12
-17 -3 3 -2 15 2 27 4 12 9 19 12 17 3 -3 2 -15 -2 -27z m-15 -54 c0 -3 -4 -8
-10 -11 -5 -3 -10 -1 -10 4 0 6 5 11 10 11 6 0 10 -2 10 -4z m-10 -46 c0 -5
-4 -10 -10 -10 -5 0 -10 5 -10 10 0 6 5 10 10 10 6 0 10 -4 10 -10z m-36 -84
c-9 -26 -19 -45 -22 -42 -2 3 3 26 13 51 22 60 30 53 9 -9z m-38 -122 c-4 -9
-9 -15 -11 -12 -3 3 -3 13 1 22 4 9 9 15 11 12 3 -3 3 -13 -1 -22z m-16 -68
c0 -3 -4 -8 -10 -11 -5 -3 -10 -1 -10 4 0 6 5 11 10 11 6 0 10 -2 10 -4z m-35
-106 c-4 -12 -9 -19 -12 -17 -3 3 -2 15 2 27 4 12 9 19 12 17 3 -3 2 -15 -2
-27z m369 -245 c-4 -8 -8 -15 -10 -15 -2 0 -4 7 -4 15 0 8 4 15 10 15 5 0 7
-7 4 -15z m18 -17 c-7 -7 -12 -8 -12 -2 0 14 12 26 19 19 2 -3 -1 -11 -7 -17z
m-112 -118 c0 -5 -2 -10 -4 -10 -3 0 -8 5 -11 10 -3 6 -1 10 4 10 6 0 11 -4
11 -10z m-390 -89 c0 -6 -4 -13 -10 -16 -5 -3 -10 1 -10 9 0 9 5 16 10 16 6 0
10 -4 10 -9z m-310 -286 c0 -2 -28 -18 -62 -34 -143 -67 -374 -295 -551 -541
l-18 -25 12 25 c21 44 96 153 164 237 118 147 325 318 404 334 50 9 51 10 51
4z m65 -45 c-3 -5 -10 -10 -16 -10 -5 0 -9 5 -9 10 0 6 7 10 16 10 8 0 12 -4
9 -10z m-45 -14 c0 -2 -7 -9 -15 -16 -12 -10 -15 -10 -15 4 0 9 7 16 15 16 8
0 15 -2 15 -4z m-2580 -72 c-7 -13 -18 -20 -26 -17 -9 3 -12 0 -9 -9 5 -13
-76 -118 -92 -119 -17 -1 -32 -21 -26 -37 3 -12 2 -13 -4 -4 -7 9 -29 -11 -81
-70 -82 -96 -222 -237 -222 -224 0 26 170 232 355 430 93 100 111 115 113 96
2 -13 -2 -33 -8 -46z m2523 39 c-6 -2 -25 -15 -43 -28 -19 -14 -36 -22 -39
-19 -3 3 2 10 12 15 9 6 29 21 45 34 16 14 29 19 31 12 2 -6 -1 -13 -6 -14z
m-113 -78 c-7 -9 -15 -13 -19 -10 -3 3 1 10 9 15 21 14 24 12 10 -5z m-64 -73
c-17 -16 -18 -16 -5 5 7 12 15 20 18 17 3 -2 -3 -12 -13 -22z m-796 -306 c0
-5 -303 -201 -347 -225 -96 -50 55 56 236 166 101 62 111 67 111 59z m-2044
-113 c-10 -10 -19 5 -10 18 6 11 8 11 12 0 2 -7 1 -15 -2 -18z m1585 -123
c-13 -11 -28 -20 -35 -20 -6 1 0 10 13 20 13 11 28 20 35 20 6 -1 0 -10 -13
-20z m-21 -60 c0 -5 -5 -10 -11 -10 -5 0 -7 5 -4 10 3 6 8 10 11 10 2 0 4 -4
4 -10z m2440 -15 c-7 -8 -17 -15 -23 -15 -5 0 -2 9 8 20 21 23 35 19 15 -5z
m-3150 -45 c0 -5 -7 -10 -16 -10 -8 0 -12 5 -9 10 3 6 10 10 16 10 5 0 9 -4 9
-10z m-67 -7 c-13 -2 -33 -2 -45 0 -13 2 -3 4 22 4 25 0 35 -2 23 -4z m77 -33
c0 -5 -24 -10 -52 -10 -38 0 -49 3 -38 10 20 13 90 13 90 0z m-336 -9 c3 -5
-8 -14 -24 -20 -24 -8 -30 -7 -30 4 0 21 43 34 54 16z m-84 -41 c-34 -26 -203
-110 -221 -110 -9 0 -26 -11 -39 -25 -12 -13 -38 -29 -56 -35 -21 -7 -34 -18
-34 -28 0 -15 -2 -15 -10 -2 -8 13 -11 12 -24 -5 -8 -11 -10 -22 -5 -23 6 -3
5 -10 -2 -18 -10 -12 -14 -12 -25 3 -12 17 -13 16 -14 -7 0 -17 -3 -21 -11
-13 -12 12 -90 -38 -146 -95 -18 -18 -33 -31 -33 -28 0 8 -19 -8 -152 -135
-65 -62 -118 -118 -118 -126 0 -7 -11 -18 -24 -23 -13 -5 -32 -21 -43 -36 -10
-14 -30 -38 -44 -53 -14 -14 -40 -47 -57 -72 -17 -25 -42 -53 -56 -63 -14 -9
-26 -25 -26 -36 0 -11 -13 -35 -30 -53 -16 -19 -30 -41 -30 -48 0 -8 -9 -20
-20 -27 -11 -7 -20 -20 -21 -30 0 -9 -9 -30 -19 -47 -11 -16 -36 -64 -57 -105
-21 -41 -41 -76 -45 -78 -4 -2 -8 -13 -8 -24 0 -11 -13 -48 -30 -82 -16 -34
-41 -105 -55 -156 -15 -52 -40 -141 -56 -197 -16 -57 -29 -116 -29 -132 0 -17
-5 -33 -12 -37 -8 -5 -9 2 -4 27 3 19 9 52 13 74 3 22 10 45 14 51 5 6 8 29 7
50 0 22 4 48 9 59 6 11 27 81 48 155 20 74 55 173 78 220 22 47 40 91 40 99
-1 8 19 51 43 96 24 45 42 89 39 97 -4 9 1 18 9 21 9 4 16 14 16 24 0 14 2 15
9 5 6 -11 14 -6 31 20 61 89 125 168 136 168 19 0 68 81 54 90 -9 5 -9 9 -1
14 6 4 11 2 11 -4 0 -6 40 31 89 82 49 51 141 136 204 188 67 55 116 103 116
113 1 10 5 16 9 13 5 -3 24 5 43 18 135 92 363 215 482 261 76 29 90 31 57 5z
m3530 10 c0 -5 -5 -10 -11 -10 -5 0 -7 5 -4 10 3 6 8 10 11 10 2 0 4 -4 4 -10z
m-3580 -74 c0 -3 -4 -8 -10 -11 -5 -3 -10 -1 -10 4 0 6 5 11 10 11 6 0 10 -2
10 -4z m134 -25 c15 -16 16 -27 7 -77 -5 -33 -12 -97 -16 -144 -3 -47 -15
-110 -25 -140 -13 -40 -16 -58 -8 -68 8 -9 8 -23 0 -50 -19 -61 -49 -218 -67
-342 -9 -63 -27 -149 -40 -190 -13 -41 -40 -131 -60 -199 -20 -67 -48 -148
-64 -180 -15 -31 -38 -88 -50 -128 -32 -108 -82 -219 -188 -418 -113 -211
-256 -417 -368 -531 -131 -133 -259 -181 -426 -160 -51 6 -56 10 -84 54 -99
156 -146 365 -144 649 0 70 4 148 9 173 15 76 51 203 65 230 7 14 29 75 48
137 38 119 104 259 162 346 19 28 35 57 35 63 0 7 7 14 15 18 8 3 15 12 15 20
0 7 7 17 15 20 9 3 23 22 31 43 9 20 73 100 144 177 70 78 145 162 166 187 72
84 365 296 549 395 167 90 250 134 256 134 3 0 14 -9 23 -19z m3356 5 c0 -3
-4 -8 -10 -11 -5 -3 -10 -1 -10 4 0 6 5 11 10 11 6 0 10 -2 10 -4z m-3610 -36
c0 -5 -6 -10 -14 -10 -8 0 -18 -5 -22 -12 -5 -8 -1 -9 12 -5 19 7 19 7 0 -8
-15 -11 -23 -12 -40 -3 -20 11 -19 12 19 29 22 10 41 18 43 18 1 1 2 -3 2 -9z
m-325 -200 c-3 -5 -11 -10 -16 -10 -6 0 -7 5 -4 10 3 6 11 10 16 10 6 0 7 -4
4 -10z m-80 -67 c-2 -10 -4 -20 -4 -23 -1 -3 -5 2 -10 10 -10 15 -6 30 9 30 4
0 7 -8 5 -17z m-85 -87 c0 -3 -4 -8 -10 -11 -5 -3 -10 -1 -10 4 0 6 5 11 10
11 6 0 10 -2 10 -4z m-90 -71 c-7 -14 -19 -25 -27 -25 -19 0 -16 10 9 37 26
28 36 22 18 -12z m40 21 c0 -3 -4 -8 -10 -11 -5 -3 -10 -1 -10 4 0 6 5 11 10
11 6 0 10 -2 10 -4z m-80 -70 c0 -3 -4 -8 -10 -11 -5 -3 -10 -1 -10 4 0 6 5
11 10 11 6 0 10 -2 10 -4z m-190 -194 c0 -5 -7 -9 -15 -9 -8 0 -15 4 -15 9 0
4 7 8 15 8 8 0 15 -4 15 -8z m-220 -302 c0 -5 -5 -10 -11 -10 -5 0 -7 5 -4 10
3 6 8 10 11 10 2 0 4 -4 4 -10z m-26 -45 c-4 -8 -10 -15 -15 -15 -4 0 -6 7 -3
15 4 8 10 15 15 15 4 0 6 -7 3 -15z m-104 -195 c0 -5 -5 -10 -11 -10 -5 0 -7
5 -4 10 3 6 8 10 11 10 2 0 4 -4 4 -10z m1270 -40 c0 -5 -5 -10 -11 -10 -5 0
-7 5 -4 10 3 6 8 10 11 10 2 0 4 -4 4 -10z m-10 -35 c0 -8 -4 -15 -10 -15 -5
0 -7 7 -4 15 4 8 8 15 10 15 2 0 4 -7 4 -15z m-70 -115 c0 -5 -5 -10 -11 -10
-5 0 -7 5 -4 10 3 6 8 10 11 10 2 0 4 -4 4 -10z m21 -37 c-10 -17 -10 -16 -11
3 0 23 13 41 18 25 2 -6 -1 -18 -7 -28z m-45 -20 c-10 -10 -19 5 -10 18 6 11
8 11 12 0 2 -7 1 -15 -2 -18z m-25 -70 c-9 -16 -10 -16 -11 -1 0 9 3 25 7 35
7 16 8 17 11 1 2 -10 -1 -25 -7 -35z m-23 -55 c-2 -6 -10 -14 -16 -16 -7 -2
-10 2 -6 12 7 18 28 22 22 4z m-63 -157 c-15 -31 -35 -42 -35 -20 0 17 43 74
48 61 2 -6 -4 -24 -13 -41z m40 12 c-19 -46 -41 -71 -26 -30 14 37 30 67 36
67 3 0 -2 -17 -10 -37z m9 -48 c-4 -8 -8 -15 -10 -15 -2 0 -4 7 -4 15 0 8 4
15 10 15 5 0 7 -7 4 -15z m-63 -84 c-16 -28 -13 -36 6 -20 15 13 15 12 3 -11
-8 -15 -15 -20 -18 -12 -2 6 -8 10 -13 6 -12 -7 -12 -2 7 42 9 22 19 34 21 27
2 -7 0 -21 -6 -32z m-80 -84 c-16 -34 -37 -71 -46 -82 -9 -11 0 11 19 50 22
43 31 72 24 76 -6 4 -5 13 3 27 12 19 15 19 22 6 6 -11 -1 -35 -22 -77z
m-1184 61 c-3 -8 -6 -5 -6 6 -1 11 2 17 5 13 3 -3 4 -12 1 -19z m1155 -70 c-7
-7 -12 -8 -12 -2 0 14 12 26 19 19 2 -3 -1 -11 -7 -17z m-1216 -15 c-10 -10
-19 5 -10 18 6 11 8 11 12 0 2 -7 1 -15 -2 -18z m1219 -101 c-50 -92 -86 -137
-49 -62 32 66 77 140 82 135 2 -2 -13 -35 -33 -73z m-75 -47 c0 -16 -34 -85
-41 -85 -5 0 -3 13 6 30 8 16 15 36 15 45 0 8 5 15 10 15 6 0 10 -2 10 -5z
m-1110 -31 c0 -8 -4 -12 -10 -9 -5 3 -10 10 -10 16 0 5 5 9 10 9 6 0 10 -7 10
-16z m1050 -81 c0 -15 -41 -75 -47 -70 -3 3 5 22 17 41 21 35 30 43 30 29z
m-13 -91 c-45 -70 -82 -109 -57 -61 22 41 93 139 97 135 3 -3 -15 -36 -40 -74z
m-82 -62 c-33 -48 -59 -68 -31 -25 32 50 51 73 55 69 2 -2 -9 -22 -24 -44z
m-50 -120 c-16 -17 -33 -30 -39 -30 -5 0 5 16 24 35 18 19 36 32 39 30 2 -3
-8 -19 -24 -35z m-145 -10 c0 -5 -5 -10 -11 -10 -5 0 -7 5 -4 10 3 6 8 10 11
10 2 0 4 -4 4 -10z m54 -41 c-10 -11 -28 -25 -39 -31 -11 -5 -5 5 15 24 38 37
56 42 24 7z m-94 6 c-7 -9 -15 -13 -19 -10 -3 3 1 10 9 15 21 14 24 12 10 -5z
m-30 -25 c0 -5 -5 -10 -11 -10 -5 0 -7 5 -4 10 3 6 8 10 11 10 2 0 4 -4 4 -10z
m25 -60 c-3 -5 -12 -10 -18 -10 -7 0 -6 4 3 10 19 12 23 12 15 0z m20 -29 c-3
-6 -11 -11 -17 -11 -6 0 -6 6 2 15 14 17 26 13 15 -4z"/>
<path d="M18862 11373 c-15 -6 -6 -23 14 -23 8 0 14 7 14 15 0 15 -6 17 -28 8z"/>
<path d="M18715 11010 c3 -5 8 -10 11 -10 2 0 4 5 4 10 0 6 -5 10 -11 10 -5 0
-7 -4 -4 -10z"/>
<path d="M18675 10930 c3 -5 11 -10 16 -10 6 0 7 5 4 10 -3 6 -11 10 -16 10
-6 0 -7 -4 -4 -10z"/>
<path d="M18600 10776 c0 -9 5 -16 10 -16 6 0 10 4 10 9 0 6 -4 13 -10 16 -5
3 -10 -1 -10 -9z"/>
<path d="M18400 10339 c0 -5 5 -7 10 -4 6 3 10 8 10 11 0 2 -4 4 -10 4 -5 0
-10 -5 -10 -11z"/>
<path d="M14937 9542 c-19 -20 -23 -37 -7 -27 10 6 33 45 27 45 -2 0 -11 -8
-20 -18z"/>
<path d="M10370 12384 c-104 -112 -132 -179 -296 -728 -69 -232 -145 -485
-169 -564 -24 -79 -46 -146 -49 -149 -3 -3 -85 -14 -182 -24 -98 -10 -186 -22
-197 -25 -11 -4 -40 -6 -65 -6 -36 1 -50 -4 -73 -28 -26 -26 -29 -35 -29 -94
0 -62 1 -66 30 -81 42 -22 122 -19 254 10 122 26 196 32 196 15 0 -6 -29 -122
-65 -258 -84 -321 -147 -601 -187 -836 -36 -211 -21 -183 -147 -286 -35 -29
-66 -61 -68 -71 -3 -10 -11 -15 -19 -12 -19 7 -66 -25 -58 -39 4 -6 3 -8 -3
-5 -5 4 -23 -7 -39 -24 -15 -16 -34 -27 -41 -25 -7 3 -13 1 -13 -4 0 -6 -6
-10 -14 -10 -8 0 -24 -9 -37 -21 -13 -11 -17 -17 -9 -13 13 7 13 5 1 -9 -15
-18 -26 -23 -16 -7 13 22 -14 8 -46 -23 -19 -18 -68 -55 -109 -81 -41 -27
-157 -107 -258 -178 -101 -72 -186 -127 -190 -123 -4 4 -7 88 -6 188 1 164 3
192 27 279 35 126 100 277 132 305 14 12 41 25 60 29 32 6 35 9 35 40 0 44
-43 93 -109 124 l-51 24 -36 -35 c-45 -42 -94 -117 -125 -189 -26 -62 -55
-105 -72 -106 -7 0 -34 -22 -62 -48 -27 -26 -93 -76 -145 -112 -52 -35 -123
-84 -157 -108 -80 -57 -158 -86 -231 -86 -87 0 -85 -3 -80 154 l5 136 -56 48
c-95 80 -87 77 -113 49 -31 -34 -324 -288 -423 -367 -134 -106 -291 -200 -336
-200 -19 0 -20 4 -14 43 14 88 40 178 101 342 64 175 97 291 109 381 l7 52
-48 36 -48 37 -31 -33 c-27 -28 -46 -78 -120 -308 -82 -256 -89 -282 -93 -377
-9 -202 63 -332 193 -350 35 -4 56 1 126 35 111 52 195 114 362 266 171 155
216 191 226 180 4 -5 17 -41 29 -81 55 -175 170 -259 320 -232 74 14 197 80
316 171 59 46 116 89 126 96 17 12 17 3 16 -163 0 -96 -5 -175 -10 -175 -5 0
-6 -31 -2 -71 l6 -71 -142 -146 c-172 -176 -260 -292 -328 -427 -45 -92 -50
-108 -50 -169 0 -132 83 -323 176 -405 100 -88 247 -72 410 44 58 42 68 54
114 148 82 164 86 244 29 576 -37 223 -37 230 4 267 41 38 160 129 302 229 61
42 133 97 161 121 29 24 62 48 75 53 46 17 285 187 344 244 l60 58 9 -51 c7
-39 5 -62 -8 -101 -16 -51 -23 -164 -8 -156 4 3 5 -15 3 -39 -1 -24 -8 -44
-14 -44 -7 0 -8 -46 -2 -147 10 -196 12 -208 29 -278 45 -181 99 -271 190
-321 32 -18 86 -35 86 -28 0 2 -16 26 -35 53 -108 150 -135 400 -95 891 14
182 36 239 212 570 46 88 104 227 192 467 69 188 126 347 126 354 0 6 20 70
44 143 25 72 47 149 51 171 4 22 13 54 21 71 13 30 17 32 86 38 110 9 448 7
576 -4 96 -9 116 -8 136 5 15 10 26 12 30 6 4 -6 14 -7 23 -4 11 4 14 3 9 -5
-4 -7 -1 -12 8 -12 8 0 18 5 22 11 5 8 8 8 14 0 10 -17 40 -2 40 19 0 10 -8
24 -17 31 -11 10 -14 10 -9 2 4 -7 2 -13 -3 -13 -6 0 -11 7 -11 16 0 13 -2 13
-13 2 -18 -17 -208 -9 -215 10 -2 6 -13 12 -25 12 -18 0 -19 -2 -7 -10 11 -7
5 -10 -25 -11 -124 -2 -202 3 -222 16 -15 10 -23 11 -25 3 -6 -18 -45 -19 -52
-2 -5 13 -21 14 -98 10 -57 -3 -98 0 -105 6 -9 7 -14 6 -18 -4 -8 -21 -55 -11
-55 12 0 37 30 48 103 39 38 -5 210 -13 382 -19 335 -11 489 -26 625 -63 47
-12 97 -20 110 -17 21 5 13 10 -47 32 -124 47 -188 55 -638 88 -78 5 -215 10
-305 10 -91 0 -175 3 -186 6 -27 7 -25 16 50 255 63 201 92 311 102 389 4 30
15 67 26 82 10 15 26 67 35 115 8 49 22 108 31 133 8 25 14 63 13 85 -3 56 -3
98 0 195 2 70 -1 93 -19 130 -33 70 -56 91 -123 110 -26 8 -33 3 -89 -56z m95
-166 c-3 -18 -9 -73 -16 -123 -22 -185 -69 -365 -242 -940 l-64 -210 -51 -3
-51 -3 2 44 c1 25 5 43 9 41 8 -5 22 55 14 63 -3 3 2 12 10 21 9 8 13 23 11
33 -3 11 -2 19 2 19 13 0 44 117 36 130 -5 8 -4 11 2 7 13 -8 96 272 88 298
-6 17 -5 18 5 5 10 -13 11 -11 7 8 -3 12 -2 20 3 17 11 -7 21 40 13 61 -5 13
-3 15 7 9 10 -6 11 -2 6 21 -4 18 -3 24 2 16 12 -18 25 29 15 54 -5 12 -3 15
6 9 10 -6 11 -2 6 15 -5 15 -4 20 4 16 7 -5 10 6 9 31 -1 20 4 39 10 41 7 2
12 15 12 29 0 14 8 37 18 51 11 15 27 51 36 81 17 54 82 191 90 191 3 0 3 -15
1 -32z m79 -110 c-10 -103 -54 -290 -119 -519 -37 -127 -65 -233 -62 -236 3
-2 13 23 23 58 10 35 20 57 22 50 6 -17 -38 -152 -48 -146 -9 6 -30 -40 -29
-63 1 -11 4 -8 9 8 8 24 8 24 9 3 1 -12 -9 -31 -21 -42 -16 -15 -21 -33 -22
-71 -1 -28 -6 -54 -11 -58 -21 -15 -45 -83 -39 -110 4 -15 3 -24 -1 -20 -4 4
-14 1 -22 -7 -19 -20 -33 -19 -33 3 0 51 131 466 142 450 6 -9 8 -7 4 7 -3 11
8 67 24 124 17 58 33 123 37 144 4 24 12 41 22 44 13 3 16 13 13 43 -3 26 3
54 17 83 12 24 21 49 21 55 0 7 4 12 8 12 5 0 14 36 20 81 11 76 31 159 38
159 2 0 1 -24 -2 -52z m18 -210 c-7 -7 -12 -8 -12 -2 0 14 12 26 19 19 2 -3
-1 -11 -7 -17z m-405 -210 c-3 -8 -6 -5 -6 6 -1 11 2 17 5 13 3 -3 4 -12 1
-19z m-20 -60 c-3 -8 -6 -5 -6 6 -1 11 2 17 5 13 3 -3 4 -12 1 -19z m321 -3
c-6 -14 -13 -24 -14 -22 -6 6 9 47 17 47 5 0 3 -11 -3 -25z m-355 -15 c-3 -12
-8 -19 -11 -16 -5 6 5 36 12 36 2 0 2 -9 -1 -20z m-27 -96 c-4 -9 -9 -15 -11
-12 -3 3 -3 13 1 22 4 9 9 15 11 12 3 -3 3 -13 -1 -22z m-16 -54 c-6 -11 -12
-20 -14 -20 -2 0 -2 9 1 20 3 11 9 20 15 20 5 0 4 -9 -2 -20z m-23 -62 c-3 -8
-6 -5 -6 6 -1 11 2 17 5 13 3 -3 4 -12 1 -19z m-23 -81 c-9 -26 -18 -47 -21
-47 -6 0 7 61 19 83 17 33 18 12 2 -36z m43 31 c-3 -8 -6 -5 -6 6 -1 11 2 17
5 13 3 -3 4 -12 1 -19z m-27 -98 c-6 -23 -14 -40 -17 -37 -3 3 1 30 8 59 8 29
15 45 17 36 2 -9 -2 -35 -8 -58z m-69 -122 c-25 -91 -49 -158 -50 -138 -2 23
62 235 67 222 2 -6 -6 -44 -17 -84z m23 -32 c-13 -46 -28 -96 -34 -110 -17
-44 -20 -28 -4 22 8 26 22 75 32 110 9 34 20 62 23 62 4 0 -4 -38 -17 -84z
m231 -192 c14 -6 14 -8 -1 -25 -18 -20 -54 -26 -54 -10 0 9 27 41 35 41 2 0
11 -3 20 -6z m-100 -34 c-3 -4 -20 -8 -39 -8 -43 0 -57 25 -18 30 31 4 65 -9
57 -22z m63 -143 c2 -15 -1 -27 -7 -27 -6 0 -11 -12 -11 -27 -1 -46 -25 -136
-38 -141 -7 -2 -12 -18 -12 -36 0 -18 -5 -37 -10 -42 -6 -6 -16 -30 -23 -55
-7 -24 -17 -43 -22 -42 -13 2 -26 -33 -19 -52 4 -8 1 -15 -5 -15 -6 0 -11 -12
-11 -26 0 -16 -4 -23 -11 -18 -8 4 -9 -1 -4 -16 4 -14 3 -20 -3 -16 -11 7 -25
-21 -16 -35 3 -5 1 -9 -4 -9 -9 0 -25 -34 -88 -185 -18 -44 -40 -81 -49 -83
-23 -5 -19 15 24 119 21 52 42 109 45 127 4 18 12 30 17 26 5 -3 9 6 9 20 0
14 4 26 9 26 5 0 11 17 15 38 3 20 18 64 32 97 14 33 34 87 44 120 15 50 74
218 94 271 10 25 41 12 44 -19z m-98 19 c0 -29 -276 -795 -302 -836 -16 -27 3
92 29 175 13 44 44 163 69 265 81 337 96 389 113 393 21 6 91 8 91 3z m-242
-28 c-3 -7 -29 -112 -58 -232 -43 -176 -56 -215 -63 -198 -7 16 -4 37 12 79
13 32 28 87 35 123 22 112 59 240 69 240 5 0 7 -6 5 -12z m27 -28 c-4 -12 -9
-19 -12 -17 -3 3 -2 15 2 27 4 12 9 19 12 17 3 -3 2 -15 -2 -27z m-29 -105
c-8 -23 -15 -32 -15 -21 -1 26 23 93 27 75 1 -8 -4 -32 -12 -54z m-50 -223
c-11 -10 -14 3 -8 33 l7 30 3 -28 c2 -16 1 -31 -2 -35z m-25 -73 c-6 -16 -10
-18 -10 -7 -1 22 12 55 16 42 2 -6 -1 -22 -6 -35z m-14 -51 c-3 -8 -6 -5 -6 6
-1 11 2 17 5 13 3 -3 4 -12 1 -19z m-50 -61 c-5 -47 -63 -275 -73 -286 -13
-14 -12 12 2 50 8 24 19 64 24 89 22 109 43 200 48 200 3 0 2 -24 -1 -53z m24
-34 c-12 -20 -14 -14 -5 12 4 9 9 14 11 11 3 -2 0 -13 -6 -23z m-14 -65 c-3
-8 -6 -5 -6 6 -1 11 2 17 5 13 3 -3 4 -12 1 -19z m-27 -105 c-11 -17 -11 -17
-6 0 3 10 7 26 7 35 1 15 2 15 6 0 2 -10 -1 -25 -7 -35z m-10 -59 c0 -14 -4
-23 -9 -20 -5 3 -7 15 -4 26 7 28 13 25 13 -6z m-23 -91 c-3 -10 -5 -4 -5 12
0 17 2 24 5 18 2 -7 2 -21 0 -30z m-33 -10 c-26 -164 -71 -357 -84 -361 -13
-5 -13 -3 -2 11 8 9 11 20 9 24 -3 5 1 40 9 78 8 39 19 97 24 130 5 33 16 77
25 98 8 21 13 42 10 47 -4 6 -1 10 5 10 6 0 8 -14 4 -37z m-4 -160 c-11 -17
-11 -17 -6 0 3 10 6 24 7 30 0 9 2 9 5 0 3 -7 0 -20 -6 -30z m-20 -110 c-10
-16 -11 -15 -6 7 3 14 6 32 7 40 1 8 4 5 6 -7 2 -12 -1 -30 -7 -40z m-120
-177 c0 -2 -8 -10 -17 -17 -16 -13 -17 -12 -4 4 13 16 21 21 21 13z m-10 -71
c-7 -9 -15 -13 -17 -11 -7 7 7 26 19 26 6 0 6 -6 -2 -15z m-85 -5 c-3 -5 -11
-10 -16 -10 -6 0 -7 5 -4 10 3 6 11 10 16 10 6 0 7 -4 4 -10z m45 -30 c0 -5
-2 -10 -4 -10 -3 0 -8 5 -11 10 -3 6 -1 10 4 10 6 0 11 -4 11 -10z m-21 -22
c-66 -41 -95 -40 -42 2 18 14 30 17 37 10 5 -5 8 -11 5 -12z m-1929 -8 c0 -11
-6 -20 -14 -20 -7 0 -19 -7 -26 -15 -18 -22 -31 -18 -22 6 6 16 33 38 60 48 1
1 2 -8 2 -19z m-70 -15 c-7 -9 -15 -13 -18 -10 -3 2 1 11 8 20 7 9 15 13 18
10 3 -2 -1 -11 -8 -20z m2048 -7 c-3 -7 -14 -14 -26 -16 -13 -2 -22 -11 -22
-22 0 -10 -7 -20 -15 -24 -8 -3 -15 -1 -15 4 0 17 -17 11 -49 -16 -17 -14 -36
-24 -41 -22 -13 4 80 75 123 93 40 18 50 18 45 3z m-1198 -6 c0 -13 -23 -32
-39 -32 -11 0 -10 4 4 20 19 21 35 26 35 12z m-885 -12 c-3 -5 -12 -10 -19
-10 -13 0 -36 -41 -36 -64 0 -15 -39 -35 -56 -29 -17 6 -4 45 19 63 50 38 105
62 92 40z m1914 -42 c-28 -31 -35 -45 -27 -55 8 -9 4 -15 -13 -22 -13 -5 -33
-19 -44 -31 -24 -28 -154 -114 -161 -107 -3 3 21 24 53 48 67 49 133 109 133
121 0 16 -27 7 -50 -17 -24 -25 -50 -33 -50 -15 0 10 81 60 98 60 6 0 27 16
47 35 49 50 62 35 14 -17z m-1896 14 c-3 -12 -9 -19 -14 -16 -5 3 -4 14 2 25
13 26 20 21 12 -9z m-143 -92 c0 -5 -5 -10 -11 -10 -7 0 -18 -8 -25 -17 -12
-17 -13 -17 -14 -1 0 9 8 22 18 27 22 13 32 14 32 1z m1870 -20 c0 -5 -7 -10
-16 -10 -8 0 -12 5 -9 10 3 6 10 10 16 10 5 0 9 -4 9 -10z m-1946 -34 c-7 -18
-54 -50 -54 -37 0 8 47 51 56 51 2 0 1 -6 -2 -14z m1900 -1 c4 -10 -10 -27
-43 -50 -27 -20 -52 -46 -55 -59 -6 -23 -99 -96 -124 -96 -6 0 -12 8 -12 17 0
14 -3 14 -12 5 -10 -10 -10 -15 2 -23 12 -8 9 -14 -20 -39 -59 -49 -80 -57
-94 -37 -17 22 -27 11 -16 -19 6 -14 6 -26 0 -29 -6 -4 -10 -2 -10 4 0 5 -18
-8 -39 -30 -22 -23 -42 -36 -45 -30 -4 6 -13 8 -22 4 -12 -4 -14 0 -9 23 11
47 39 79 72 82 20 2 33 10 36 22 5 20 82 80 102 80 7 0 16 7 19 16 4 12 13 14
32 10 17 -5 23 -3 19 4 -16 26 67 84 117 82 21 0 28 4 28 19 0 11 14 28 33 39
38 24 34 23 41 5z m-554 -374 c-13 -25 -13 -41 0 -41 6 0 10 7 10 16 0 8 5 12
10 9 6 -3 10 2 11 12 0 10 5 5 10 -12 8 -25 6 -33 -13 -48 -11 -10 -26 -16
-32 -14 -17 6 -29 67 -15 83 17 21 31 17 19 -5z m977 -53 c-3 -7 -5 -2 -5 12
0 14 2 19 5 13 2 -7 2 -19 0 -25z m-1377 -245 c-1 -15 -30 -46 -37 -40 -3 4 2
16 12 27 19 21 25 24 25 13z m272 -60 c19 -85 17 -304 -4 -380 -48 -175 -124
-254 -287 -299 -51 -14 -67 -15 -101 -5 l-41 12 7 72 c13 131 64 259 151 379
54 74 240 278 253 278 5 0 14 -26 22 -57z m-346 -38 c-15 -23 -36 -34 -36 -18
0 10 43 54 48 48 3 -2 -3 -16 -12 -30z m-84 -107 c-7 -7 -12 -8 -12 -2 0 14
12 26 19 19 2 -3 -1 -11 -7 -17z m-31 -51 c-8 -8 -11 -7 -11 4 0 9 3 19 7 23
4 4 9 2 11 -4 3 -7 -1 -17 -7 -23z"/>
<path d="M8920 8895 c-7 -9 -8 -15 -2 -15 5 0 12 7 16 15 3 8 4 15 2 15 -2 0
-9 -7 -16 -15z"/>
<path d="M8714 8778 l-19 -23 23 19 c21 18 27 26 19 26 -2 0 -12 -10 -23 -22z"/>
<path d="M8610 8681 c0 -6 5 -13 10 -16 6 -3 10 1 10 9 0 9 -4 16 -10 16 -5 0
-10 -4 -10 -9z"/>
<path d="M10780 10862 c0 -4 9 -8 19 -8 11 0 17 4 15 8 -3 4 -12 8 -20 8 -8 0
-14 -4 -14 -8z"/>
<path d="M11248 10807 c-16 -6 -28 -15 -28 -20 0 -5 7 -7 15 -3 8 3 15 1 15
-4 0 -16 37 -11 44 6 5 12 15 14 50 9 24 -4 59 -4 78 0 29 7 30 9 13 16 -29
11 -155 9 -187 -4z"/>
<path d="M6445 10389 c-33 -10 -79 -21 -102 -25 -43 -6 -43 -6 -43 -49 0 -36
5 -48 30 -68 73 -62 154 -68 192 -16 15 21 16 34 8 93 -4 37 -12 72 -17 76 -4
5 -35 0 -68 -11z"/>
<path d="M15930 10344 c-39 -26 -120 -107 -120 -120 0 -39 103 -110 144 -100
62 15 108 117 87 194 -11 40 -14 42 -49 42 -21 0 -49 -7 -62 -16z"/>
<path d="M11737 9645 c-82 -30 -144 -83 -225 -193 -107 -145 -151 -211 -205
-312 -48 -88 -117 -280 -117 -321 1 -23 39 -104 40 -84 0 6 11 -13 24 -42 28
-59 53 -69 144 -58 97 12 179 63 322 200 160 152 220 205 260 225 22 11 52 32
67 47 l28 28 5 -175 c5 -160 7 -178 27 -206 33 -46 67 -64 138 -75 l63 -10 93
47 c261 130 465 278 617 447 49 53 15 49 -42 -6 -25 -23 -50 -41 -57 -38 -6 2
-9 -3 -7 -10 3 -9 -12 -24 -37 -39 -23 -14 -92 -62 -153 -108 -120 -90 -235
-154 -259 -145 -12 5 -8 10 13 21 111 56 267 152 309 192 28 25 96 85 151 133
137 117 205 210 228 311 6 24 -18 6 -136 -110 -244 -235 -353 -323 -505 -402
-80 -41 -223 -93 -295 -106 -34 -6 -38 -4 -44 18 -3 13 2 59 11 100 9 42 14
87 11 100 -3 13 1 38 10 55 22 45 15 151 -12 187 -28 38 -51 43 -113 28 -30
-8 -55 -13 -57 -11 -2 2 5 21 16 42 39 76 19 172 -45 221 -42 32 -138 64 -189
63 -23 0 -58 -7 -79 -14z m163 -197 c1 -23 9 -133 12 -153 3 -24 -248 -269
-376 -366 -79 -61 -154 -104 -163 -96 -7 8 122 257 176 339 88 134 179 217
294 268 51 23 57 23 57 8z m1080 -194 c-124 -125 -338 -281 -498 -363 -35 -18
-42 -19 -42 -6 0 8 9 15 19 15 10 0 21 7 25 15 3 9 12 12 22 8 13 -5 15 -3 9
7 -5 9 -4 11 3 6 7 -4 12 -4 12 1 0 4 18 16 39 26 56 27 228 158 361 275 63
55 119 101 125 101 5 1 -29 -38 -75 -85z m-1020 -58 c0 -2 -7 -7 -16 -10 -8
-3 -12 -2 -9 4 6 10 25 14 25 6z m-649 -359 c-10 -9 -11 -8 -5 6 3 10 9 15 12
12 3 -3 0 -11 -7 -18z m1119 -28 c0 -6 7 -8 18 -4 12 4 14 3 6 -5 -6 -6 -18
-8 -27 -4 -18 7 -23 24 -7 24 6 0 10 -5 10 -11z m-1130 -19 c0 -5 -2 -10 -4
-10 -3 0 -8 5 -11 10 -3 6 -1 10 4 10 6 0 11 -4 11 -10z"/>
<path d="M6194 9561 c-63 -39 -81 -89 -41 -121 22 -18 22 -21 21 -262 0 -193
-5 -274 -22 -392 -12 -82 -25 -153 -29 -156 -5 -4 -42 -15 -83 -25 -139 -33
-364 -115 -505 -185 -433 -213 -909 -628 -1170 -1020 -147 -221 -259 -501
-326 -811 -27 -127 -22 -245 15 -392 37 -145 84 -234 164 -315 107 -106 133
-124 202 -144 192 -54 428 -18 592 92 34 22 68 38 75 36 8 -3 18 5 25 20 6 13
17 23 24 20 15 -6 234 192 338 305 96 104 211 255 178 235 -10 -6 -13 -2 -10
15 2 15 10 24 20 24 22 0 52 41 42 57 -4 7 -3 8 4 4 8 -5 12 1 12 15 0 13 15
39 34 59 40 41 74 102 82 148 4 19 17 44 30 57 13 13 24 32 25 42 2 47 7 64
21 76 20 17 85 164 93 212 3 22 12 56 20 75 37 95 61 190 51 201 -8 7 -7 14 4
22 16 12 50 133 50 177 1 14 7 34 15 44 8 11 15 34 15 52 0 18 11 74 25 126
13 51 40 186 59 301 34 199 63 333 85 389 13 34 47 42 181 41 235 -3 431 -78
520 -201 21 -29 41 -48 45 -43 10 17 -21 63 -82 122 -138 132 -272 180 -551
196 l-114 6 7 81 c4 45 16 151 27 236 11 85 22 239 25 342 l6 187 -36 36 c-30
30 -41 35 -83 35 -31 0 -61 -7 -80 -19z m-77 -957 c-3 -3 -12 -4 -19 -1 -8 3
-5 6 6 6 11 1 17 -2 13 -5z m-52 -14 c-3 -5 -13 -10 -21 -10 -8 0 -12 5 -9 10
3 6 13 10 21 10 8 0 12 -4 9 -10z m20 -20 c-3 -5 -10 -10 -16 -10 -5 0 -9 5
-9 10 0 6 7 10 16 10 8 0 12 -4 9 -10z m-221 -46 c16 -6 12 -24 -5 -24 -6 0
-8 4 -4 9 3 5 -3 12 -12 14 -10 3 -13 5 -6 6 6 0 18 -2 27 -5z m-153 -54 c-62
-27 -125 -57 -138 -66 -14 -8 -27 -14 -29 -11 -8 8 96 67 170 98 120 48 118
32 -3 -21z m300 36 c16 10 99 16 99 8 0 -21 -77 -460 -106 -603 -103 -515
-257 -940 -438 -1213 -21 -31 -35 -61 -32 -67 8 -12 -20 -71 -34 -71 -5 0 -6
8 -3 18 4 9 -34 -35 -83 -98 -49 -63 -143 -169 -209 -235 -181 -181 -343 -280
-540 -330 -81 -21 -104 -23 -198 -16 -67 5 -114 13 -129 23 -68 45 -127 141
-128 208 -1 19 -7 53 -15 75 -17 46 -21 179 -5 155 7 -11 10 2 9 45 0 33 6 89
15 125 9 36 16 98 16 138 0 47 4 72 11 72 8 0 10 13 6 38 -4 21 -3 31 2 24 6
-10 10 -8 14 10 4 12 2 25 -4 27 -5 1 -2 10 8 18 12 9 14 16 7 19 -17 7 -5 45
23 71 12 12 23 30 23 40 0 14 -2 15 -9 4 -19 -30 -18 7 1 52 14 33 26 47 37
45 11 -2 31 23 65 82 125 219 461 650 529 680 15 7 49 37 76 66 27 30 56 54
64 54 7 0 33 18 56 40 23 22 47 40 54 40 7 0 18 9 25 20 7 11 20 20 30 20 9 0
28 9 42 20 21 17 22 19 5 14 l-20 -5 20 16 c34 27 125 84 125 78 0 -3 16 9 35
26 20 17 43 31 51 31 8 0 35 14 60 31 24 16 53 32 63 34 10 2 77 33 150 70 75
37 140 64 149 60 23 -8 62 22 56 43 -5 13 -4 14 4 3 6 -8 15 -10 23 -5z m-236
-38 c-11 -7 -29 -13 -40 -15 -20 -3 -20 -3 -1 12 11 8 29 15 40 15 21 -1 21
-1 1 -12z m-125 -53 c0 -3 -27 -19 -61 -35 -34 -17 -58 -26 -54 -20 3 5 27 21
53 35 47 24 62 29 62 20z m-173 -62 c-9 -9 -20 -13 -24 -9 -4 4 1 14 11 22 25
18 35 8 13 -13z m-42 -23 c-3 -5 -13 -10 -21 -10 -8 0 -12 5 -9 10 3 6 13 10
21 10 8 0 12 -4 9 -10z m110 0 c-3 -5 -11 -10 -16 -10 -6 0 -7 5 -4 10 3 6 11
10 16 10 6 0 7 -4 4 -10z m-155 -14 c0 -3 -4 -8 -10 -11 -5 -3 -10 -1 -10 4 0
6 5 11 10 11 6 0 10 -2 10 -4z m44 -24 c-11 -10 -19 -24 -17 -32 4 -12 2 -12
-5 -2 -5 7 -16 10 -25 6 -28 -11 -19 5 16 26 39 24 60 26 31 2z m46 -2 c-24
-15 -37 -11 -16 5 11 8 22 12 25 9 3 -3 -1 -9 -9 -14z m-160 -30 c0 -5 -5 -10
-11 -10 -5 0 -7 5 -4 10 3 6 8 10 11 10 2 0 4 -4 4 -10z m-55 -39 c-3 -6 -11
-11 -17 -11 -6 0 -6 6 2 15 14 17 26 13 15 -4z m65 9 c0 -5 -5 -10 -11 -10 -5
0 -7 5 -4 10 3 6 8 10 11 10 2 0 4 -4 4 -10z m-53 -50 c1 -11 -3 -23 -9 -26
-7 -5 -9 -1 -5 9 9 23 2 21 -46 -11 -55 -37 -67 -44 -67 -38 0 6 111 86 119
86 4 0 7 -9 8 -20z m-86 -11 c-13 -11 -26 -17 -29 -14 -7 6 29 34 43 34 6 0
-1 -9 -14 -20z m-117 -128 c-16 -16 -31 -27 -34 -24 -5 5 46 53 57 53 4 0 -7
-13 -23 -29z m-117 -96 c-23 -22 -33 -18 -12 5 10 11 20 18 23 16 2 -3 -3 -12
-11 -21z m-97 -100 c-24 -25 -46 -42 -49 -40 -3 3 15 25 39 50 24 25 46 42 49
40 3 -3 -15 -25 -39 -50z m1198 14 c-6 -16 -12 -28 -15 -26 -7 7 8 57 18 57 4
0 3 -14 -3 -31z m-18 -103 c0 -3 -4 -8 -10 -11 -5 -3 -10 -1 -10 4 0 6 5 11
10 11 6 0 10 -2 10 -4z m-10 -50 c0 -3 -4 -8 -10 -11 -5 -3 -10 -1 -10 4 0 6
5 11 10 11 6 0 10 -2 10 -4z m-1340 -36 c0 -5 -5 -10 -11 -10 -5 0 -7 5 -4 10
3 6 8 10 11 10 2 0 4 -4 4 -10z m-44 -48 c-18 -16 -18 -16 -6 6 6 13 14 21 18
18 3 -4 -2 -14 -12 -24z m1345 -45 c-13 -13 -15 1 -4 30 7 17 8 17 11 -1 2
-10 -1 -23 -7 -29z m-1351 -22 c0 -8 -6 -15 -14 -15 -7 0 -21 -12 -31 -26 -13
-21 -19 -24 -26 -13 -13 21 -11 32 6 25 9 -3 22 5 32 19 21 28 33 32 33 10z
m1340 -45 c0 -11 -4 -20 -10 -20 -5 0 -10 9 -10 20 0 11 5 20 10 20 6 0 10 -9
10 -20z m-10 -50 c0 -5 -4 -10 -10 -10 -5 0 -10 5 -10 10 0 6 5 10 10 10 6 0
10 -4 10 -10z m-1440 -39 c-5 -11 -15 -23 -22 -27 -7 -5 -8 -2 -3 7 21 37 44
55 25 20z m1424 -30 c-4 -19 -10 -29 -16 -23 -5 5 -4 20 2 37 6 15 13 26 15
23 3 -3 2 -19 -1 -37z m-24 -58 c0 -10 -5 -25 -10 -33 -7 -11 -9 -6 -7 17 2
34 17 47 17 16z m-1514 -99 c-4 -9 -9 -15 -11 -12 -3 3 -3 13 1 22 4 9 9 15
11 12 3 -3 3 -13 -1 -22z m1449 -101 c-14 -44 -38 -113 -55 -153 -16 -40 -27
-77 -23 -83 3 -5 2 -7 -4 -4 -5 3 -23 -21 -38 -53 -45 -93 -41 -63 5 41 38 85
75 180 117 297 26 74 25 39 -2 -45z m-143 -405 c-7 -7 -12 -8 -12 -2 0 14 12
26 19 19 2 -3 -1 -11 -7 -17z m-80 -90 c-7 -7 -12 -8 -12 -2 0 14 12 26 19 19
2 -3 -1 -11 -7 -17z m-27 -92 c-9 -19 -24 -41 -33 -48 -9 -8 -4 9 13 40 31 58
46 64 20 8z m-1445 -216 c0 -5 -4 -10 -10 -10 -5 0 -10 5 -10 10 0 6 5 10 10
10 6 0 10 -4 10 -10z m1090 -120 c0 -5 -5 -10 -11 -10 -5 0 -7 5 -4 10 3 6 8
10 11 10 2 0 4 -4 4 -10z m-36 -35 c-4 -9 -15 -20 -26 -26 -17 -9 -18 -8 -9 9
9 17 17 24 38 31 1 1 0 -6 -3 -14z m-74 -75 c-6 -11 -16 -20 -22 -20 -6 0 -3
9 7 20 10 11 20 20 22 20 2 0 -1 -9 -7 -20z m-80 -64 c0 -3 -4 -8 -10 -11 -5
-3 -10 -1 -10 4 0 6 5 11 10 11 6 0 10 -2 10 -4z"/>
<path d="M4325 7030 c-3 -5 -1 -10 4 -10 6 0 11 5 11 10 0 6 -2 10 -4 10 -3 0
-8 -4 -11 -10z"/>
<path d="M19185 9480 c-10 -11 -16 -22 -13 -25 3 -3 13 4 23 15 10 11 16 22
13 25 -3 3 -13 -4 -23 -15z"/>
<path d="M13070 9229 c0 -5 5 -7 10 -4 6 3 10 8 10 11 0 2 -4 4 -10 4 -5 0
-10 -5 -10 -11z"/>
<path d="M19020 9225 c-7 -9 -8 -15 -2 -15 5 0 12 7 16 15 3 8 4 15 2 15 -2 0
-9 -7 -16 -15z"/>
<path d="M18961 9211 c0 -13 -4 -21 -7 -18 -4 4 -17 -5 -30 -20 -33 -38 -19
-43 17 -6 20 19 29 37 26 49 -4 15 -5 14 -6 -5z"/>
<path d="M18871 9123 c-18 -20 -4 -31 15 -11 9 9 12 18 7 21 -4 3 -14 -2 -22
-10z"/>
<path d="M18775 8983 c-93 -80 -171 -150 -173 -154 -2 -5 -10 -9 -18 -9 -9 0
-14 -11 -14 -30 0 -16 4 -30 8 -30 11 0 94 86 94 96 -1 5 7 8 16 6 13 -2 14
-1 4 6 -10 7 11 30 80 90 89 76 187 172 178 172 -3 0 -81 -66 -175 -147z"/>
<path d="M16505 9079 c-11 -17 1 -21 15 -4 8 9 8 15 2 15 -6 0 -14 -5 -17 -11z"/>
<path d="M18710 8999 c0 -5 5 -7 10 -4 6 3 10 8 10 11 0 2 -4 4 -10 4 -5 0
-10 -5 -10 -11z"/>
<path d="M17920 8751 c0 -5 5 -13 10 -16 6 -3 10 -2 10 4 0 5 -4 13 -10 16 -5
3 -10 2 -10 -4z"/>
<path d="M14680 8679 c0 -5 5 -7 10 -4 6 3 10 8 10 11 0 2 -4 4 -10 4 -5 0
-10 -5 -10 -11z"/>
<path d="M3640 3965 l0 -75 760 0 760 0 0 75 0 75 -760 0 -760 0 0 -75z"/>
<path d="M18090 3965 l0 -75 763 2 762 3 0 70 0 70 -762 3 -763 2 0 -75z"/>
</g>
</svg>
